<svg width="290" height="288" viewBox="0 0 290 288" fill="none" xmlns="http://www.w3.org/2000/svg">
<path d="M20.1934 200.476C21.0512 201.436 22.3739 202.032 23.5049 202.733C29.9663 206.741 38.4822 208.947 45.9824 209.768C48.4396 210.037 51.5893 209.498 54.085 210.249C56.9169 211.101 59.3568 213.716 61.7588 215.117C66.734 218.02 73.4195 220.802 79.0674 221.858C86.7568 223.297 93.9812 223.452 101.683 222.285C104.496 221.859 109.517 221.011 112.073 221.115C115.118 221.239 119.819 224.171 123.069 225.137C129.52 227.054 136.482 228.787 143.167 229.411C151.318 230.172 159.111 228.636 166.939 226.611C169.499 225.95 171.928 225.483 174.477 224.605C176.904 223.77 181.139 221.305 183.506 221.109C187.378 220.789 192.282 222.161 196.317 222.646C204.071 223.579 213.063 222.943 220.672 221.178C222.427 220.77 225.241 219.17 227.318 218.58C227.622 218.475 228.59 218.519 229.204 218.266C231.847 217.175 234.468 215.312 236.809 213.704C238.232 217.998 243.622 224.186 247.599 226.521C248.825 227.242 252.142 228.699 252.947 229.488C245.564 234.025 239.977 236.647 231.509 239.069C228.97 239.796 225.854 240.058 223.742 240.714C221.541 242.334 219.077 245.037 216.915 246.599C208.991 252.32 196.951 254.466 187.357 254.243C183.01 254.141 178.256 253.592 173.966 254.13C171.659 254.417 168.476 256.01 166.184 256.815C160.012 258.978 154.487 260.37 147.905 260.295C141.756 260.227 137.502 259.391 131.74 257.221C129.452 256.361 125.467 254.448 123.206 254.198C119.778 253.816 115.069 254.343 111.504 254.463C107.593 254.59 104.733 254.483 100.825 253.933C93.0257 252.833 85.23 251.3 78.8857 246.337C77.1502 244.979 73.5536 241.562 71.8057 240.825C68.3247 239.358 63.6847 238.687 59.958 237.569C47.4939 233.833 36.455 227.331 28.416 216.941C25.9861 213.801 19.296 204.739 19.8125 200.75L20.1934 200.476ZM122.121 65.7588C133.547 60.6583 146.462 59.7403 158.739 61.3252C168.83 62.6279 175.718 67.622 184.999 70.5625C186.22 70.9492 194.757 69.3305 196.558 69.0918C207.403 67.6536 219.948 69.4395 228.953 75.9717C230.971 77.4507 232.806 79.1638 234.422 81.0732C235.755 82.6214 238.507 86.632 239.992 87.417C243.942 89.5037 249.52 90.0186 253.902 90.9131C259 91.9548 263.847 93.9795 268.17 96.874C270.72 98.6162 272.18 99.7461 273.952 102.28C274.29 102.763 275.579 104.653 275.935 104.941C277.38 108.649 277.908 113.508 276.25 117.201C271.465 127.86 247.615 137.721 237.173 142.37C230.768 145.222 224.367 148.148 217.788 150.582C214.635 151.748 202.862 154.492 201.623 157.15C201.46 157.499 201.453 157.519 201.561 157.876C204.843 158.787 208.207 159.078 211.513 159.837C226.807 163.35 259.325 171.242 271.42 179.526C273.285 180.804 275.063 182.53 276.178 184.515C277.26 186.438 277.825 189.112 277.138 191.26C276.628 192.855 275.07 194.148 274.31 195.657L274.728 195.958C274.89 196.079 275.088 196.224 275.315 196.394H275.314C275.087 196.224 274.89 196.079 274.728 195.958C273.048 196.227 269.008 198.71 267.383 199.521C261.065 202.672 254.507 203.553 247.59 204.354C244.79 204.678 241.567 204.425 238.93 205.39C236.454 206.409 234.079 208.444 231.913 209.98C221.161 217.605 207.296 218.454 194.628 216.593C190.9 216.045 186.692 214.904 182.997 215.518C178.985 216.376 174.866 218.456 171.004 219.953C163.755 222.764 154.448 223.891 146.7 223.743C139.452 223.538 132.147 222.49 125.411 220.061C122.669 219.071 113.612 214.862 111.802 215.181C95.459 218.055 78.4358 219.649 63.8428 209.862C62.0245 208.643 59.5395 206.531 57.5811 205.4C54.6312 204.288 49.2822 204.463 45.7432 204.047C41.3671 203.69 38.9473 203.031 34.6357 201.83C31.6069 200.987 27.0395 198.517 23.9219 197.79C23.5862 197.712 22.7478 197.697 22.2891 197.596L23.1787 197.318C23.2364 196.454 19.0597 193.549 18.7422 190.008C17.6902 178.275 36.6952 173.445 45.1465 170.7C61.8712 165.329 78.9131 160.998 96.1729 157.732C89.5459 153.727 82.7408 152.183 75.666 149.502C69.1118 147.018 62.3861 143.93 55.9727 141.13C45.4292 136.526 34.8878 131.823 25.9717 124.395C21.8062 121.154 18.3688 116.471 18.8027 110.946C18.9351 109.261 19.4317 106.883 19.2129 105.227C19.5187 105.448 19.5807 105.528 19.71 105.883C24.5412 98.1193 32.4266 92.7479 41.3086 90.8691C46.8004 89.7075 51.3588 89.3948 56.7666 87.5664C64.7581 76.4927 70.2798 71.5254 84.5 69.2012C89.5652 68.3285 94.7371 68.271 99.8203 69.0322C112.623 71.0292 110.275 71.9898 122.121 65.7588ZM193.077 143.111C190.284 118.159 167.745 100.226 142.803 103.111C117.99 105.982 100.17 128.378 102.949 153.201C105.728 178.025 128.059 195.926 152.893 193.238C177.855 190.536 195.871 168.064 193.077 143.111ZM161.244 123.557C170.566 124.887 172.3 142.846 161.647 146.039C150.617 142.094 152.466 125.202 161.244 123.557ZM132.813 123.786C139.527 122.712 142.335 132.43 141.433 137.522C140.774 141.239 138.632 143.301 135.707 145.342C128.655 148.597 122.126 130.386 132.813 123.786ZM126.529 24.8438C139.327 18.5718 155.214 19.0102 168.326 24.1055C172.849 25.8634 175.113 28.5731 178.561 30.166C186.677 29.4555 190.923 28.6061 199.104 29.791C208.146 31.1008 214.672 33.338 221.873 39.3926C226.139 42.7473 229.587 48.921 233.129 51.5225C237.173 53.787 241.902 54.6231 246.075 56.7295C258.687 63.096 267.713 73.8821 273.138 86.8145C274.205 89.3587 277.678 96.176 276.633 98.6992C276.62 98.5975 276.61 98.4536 276.553 98.3701C270.573 89.9062 260.737 86.3722 250.965 84.4512C248.125 83.8929 244.946 83.7645 242.397 82.8633L242.287 82.8242C237.314 78.1327 236.249 73.396 229.162 69.5518C218.647 63.848 208.518 61.4795 196.521 63.1357C193.015 63.6197 188.8 64.9529 185.188 64.9082C179.402 63.8515 173.295 59.3267 167.066 57.6504C154.003 54.1346 137.171 53.9976 124.554 59.1318C120.032 60.9723 114.647 64.1346 110.226 65.3281C92.8961 60.3951 75.6326 61.844 61.3594 73.9053C58.2266 76.5528 56.2217 80.6647 53.3018 82.8477C50.9375 83.9658 47.1289 83.7477 44.7217 84.3877C36.525 86.5672 27.8831 89.0348 21.8711 95.374C21.2316 96.0486 19.5405 97.8099 18.7363 97.9209C20.3232 93.7809 21.0559 89.9001 22.9697 85.6064C26.4617 77.7724 30.6971 71.3744 36.9629 65.5137C38.1015 64.5565 40.4598 61.8374 41.668 61.1934C43.8979 60.0046 48.29 57.1706 50.4678 56.4062C59.4959 53.2373 65.2113 51.1657 70.3643 42.4727C71.3118 40.8742 77.4427 36.2861 79.4609 35.2686C88.4717 30.6555 97.8293 28.3949 107.987 28.8193C109.978 28.9026 115.987 30.3035 117.285 29.8457C119.63 29.019 123.787 26.1876 126.529 24.8438Z" fill="#FF4F40"/>
<path d="M18.7363 97.9203C20.3232 93.7803 21.055 89.8996 22.9689 85.6058C26.4609 77.7718 30.6964 71.3743 36.9621 65.5136C38.1006 64.5566 40.4594 61.8368 41.6676 61.1928C43.8976 60.0041 48.2899 57.1703 50.4676 56.4061C59.4958 53.2371 65.2114 51.1656 70.3644 42.4723C71.3119 40.8738 77.4419 36.2856 79.4601 35.2681C88.4711 30.6548 97.8291 28.3951 107.987 28.8196C109.978 28.9028 115.986 30.3036 117.284 29.8458C119.629 29.0193 123.787 26.1878 126.529 24.8439C139.327 18.5719 155.213 19.0097 168.325 24.1049C172.849 25.8628 175.113 28.5731 178.56 30.1661C186.677 29.4556 190.923 28.6053 199.104 29.7903C208.146 31.1001 214.672 33.3378 221.873 39.3926C226.139 42.7473 229.587 48.9206 233.128 51.5221C237.172 53.7868 241.901 54.6231 246.075 56.7296C258.687 63.0961 267.712 73.8821 273.137 86.8146C274.205 89.3588 277.677 96.1753 276.632 98.6986C276.62 98.5968 276.61 98.4538 276.552 98.3703C270.572 89.9063 260.737 86.3721 250.965 84.4511C248.125 83.8928 244.945 83.7648 242.397 82.8636L242.286 82.8236C237.313 78.1321 236.249 73.3958 229.162 69.5516C218.647 63.8478 208.518 61.4793 196.521 63.1356C193.015 63.6196 188.8 64.9526 185.188 64.9078C179.402 63.8511 173.295 59.3263 167.066 57.6501C154.002 54.1343 137.17 53.9976 124.553 59.1318C120.031 60.9723 114.646 64.1348 110.225 65.3283C92.8956 60.3953 75.6321 61.8436 61.3589 73.9048C58.2261 76.5523 56.2216 80.6646 53.3016 82.8476C50.9374 83.9658 47.1286 83.7473 44.7214 84.3873C36.5246 86.5668 27.8831 89.0348 21.8711 95.3741C21.2316 96.0486 19.5406 97.8093 18.7363 97.9203Z" fill="#FF4F40"/>
<path d="M223.742 240.714C221.541 242.334 219.077 245.037 216.915 246.599C208.99 252.32 196.951 254.465 187.357 254.243C183.01 254.14 178.255 253.593 173.965 254.13C171.658 254.418 168.475 256.01 166.183 256.815C160.012 258.978 154.487 260.37 147.905 260.295C141.756 260.228 137.502 259.39 131.74 257.22C129.452 256.36 125.468 254.448 123.206 254.198C119.778 253.815 115.069 254.343 111.504 254.463C107.593 254.59 104.733 254.483 100.825 253.933C93.0255 252.833 85.2303 251.3 78.886 246.337C77.1505 244.979 73.5538 241.562 71.8058 240.825C68.3248 239.358 63.6848 238.687 59.958 237.569C47.4938 233.833 36.4545 227.331 28.4155 216.942C25.9855 213.801 19.2957 204.738 19.8125 200.75L20.1932 200.476C21.051 201.436 22.3738 202.032 23.5049 202.734C29.9663 206.742 38.4818 208.948 45.982 209.768C48.4393 210.037 51.5888 209.498 54.0845 210.249C56.9165 211.102 59.3563 213.716 61.7583 215.117C66.7335 218.02 73.419 220.802 79.067 221.859C86.7565 223.297 93.9808 223.453 101.682 222.285C104.496 221.859 109.517 221.012 112.073 221.116C115.118 221.24 119.819 224.171 123.069 225.137C129.52 227.054 136.482 228.787 143.167 229.411C151.318 230.172 159.111 228.636 166.94 226.612C169.5 225.95 171.927 225.484 174.476 224.606C176.903 223.77 181.139 221.305 183.506 221.109C187.378 220.789 192.283 222.161 196.318 222.646C204.071 223.578 213.063 222.943 220.672 221.177C222.427 220.77 225.241 219.17 227.318 218.58C227.622 218.475 228.59 218.519 229.204 218.265C231.847 217.175 234.468 215.312 236.809 213.704C238.233 217.998 243.621 224.186 247.598 226.522C248.825 227.242 252.142 228.7 252.947 229.489C245.564 234.025 239.977 236.647 231.508 239.069C228.969 239.796 225.854 240.058 223.742 240.714Z" fill="#FF4F40"/>
<path d="M227.318 218.58C227.622 218.475 228.59 218.519 229.204 218.265C231.847 217.175 234.469 215.312 236.809 213.704C238.233 217.998 243.622 224.186 247.599 226.522C248.825 227.242 252.143 228.7 252.948 229.489C245.564 234.025 239.978 236.647 231.509 239.069C228.97 239.796 225.854 240.058 223.743 240.714C222.436 237.118 212.488 233.316 209.118 231.863C213.804 229.974 218.54 228.276 222.428 224.967C223.604 223.966 227.578 220.167 227.694 218.914L227.318 218.58Z" fill="#FF4F40"/>
<path d="M276.302 201.343C275.247 209.267 263.427 222.513 257.095 227.043C255.627 228.094 254.795 229.057 252.947 229.488C252.142 228.699 248.824 227.242 247.598 226.521C243.621 224.186 238.232 217.998 236.809 213.704C241.31 209.98 243.176 209.827 248.912 209.641C251.355 209.562 254.55 209.109 256.957 208.54C260.642 207.67 264.445 206.519 267.947 205.064C270.895 203.777 273.155 202.351 276.302 201.343Z" fill="#FF4F40"/>
</svg>
