<svg width="280" height="281" viewBox="0 0 280 281" fill="none" xmlns="http://www.w3.org/2000/svg">
<g clip-path="url(#clip0_20411_35437)">
<path d="M204.581 0.661559C205.025 0.640823 205.468 0.625123 205.912 0.614458C222.746 0.226383 240.005 0.782723 256.859 0.708367C262.333 0.684075 263.706 3.27944 263.735 8.22429C263.832 24.8544 263.777 41.5022 263.769 58.1406L263.776 161.583C263.881 183.117 263.878 204.651 263.766 226.183L263.811 243.958C263.853 247.581 264.095 253.034 263.733 256.456C261.496 256.545 259.025 256.506 256.767 256.518L218.356 256.509C214.608 256.521 201.932 256.814 198.871 256.24C197.652 255.034 198.139 241.232 198.145 238.72L198.142 200.962L198.057 54.7841C198.07 47.0875 198.152 40.4556 198.241 31.6587C198.314 24.4056 197.161 9.94308 199.341 2.66593C199.705 1.44986 203.248 0.823603 204.581 0.661559ZM245.523 45.604C248.564 43.6387 249.854 41.4163 250.581 37.8353C251.857 31.5464 250.909 20.0138 242.138 20.7221C233.187 26.718 235.411 47.4001 245.523 45.604ZM219.49 45.713C228.159 41.2827 227.132 19.9285 216.29 20.6833C208.197 25.9759 208.981 47.3044 219.49 45.713Z" fill="#FF4F40"/>
<path d="M108.245 77.1902C112.966 73.8189 123.675 75.0735 129.706 75.0872C141.652 75.1144 153.971 74.6872 165.872 75.1731C172.172 75.28 173.145 77.9545 173.089 83.6743C173.38 96.4775 173.195 108.508 173.239 121.225C173.443 146.11 173.449 170.995 173.258 195.88C173.15 215.887 173.712 236.575 173.196 256.503C171.231 256.646 169.269 256.595 167.3 256.578C148.676 256.418 130.048 256.634 111.424 256.542C110.281 256.536 108.703 256.468 107.66 256.03C106.802 253.035 107.116 223.405 107.15 218.786L107.267 169.158C107.402 140.088 106.791 111.012 107.409 81.9445C107.446 80.1804 107.736 78.8693 108.245 77.1902ZM127.866 120.372C138.394 116.161 135.43 95.457 127.143 94.7658C116.527 97.7833 118.654 119.988 127.866 120.372ZM154.085 120.183C163.134 115.472 162.255 93.7705 151.282 95.1124C142.358 101.182 145.129 121.798 154.085 120.183Z" fill="#FF4F40"/>
<path d="M165.872 75.1729C172.172 75.2798 173.145 77.9542 173.089 83.6741C170.968 81.2298 171.738 78.358 168.52 77.0685C168.17 76.9287 168.017 76.7737 167.805 76.4648C168.906 76.7506 169.652 76.929 170.777 77.1052C168.651 75.9043 167.453 76.1042 165.872 75.1729Z" fill="#FF4F40"/>
<path d="M72.4843 146.641C73.0679 146.682 74.6486 146.751 75.1271 146.904C77.9855 146.855 79.2587 147.285 81.3446 149.324L81.5872 149.563C82.4146 153.215 82.1894 159.209 82.1847 163.081L82.148 180.624C82.1311 205.5 81.6479 231.832 82.2505 256.55C60.3956 256.476 38.1814 256.743 16.3899 256.476L16.2939 192.026L16.3162 168.236C16.3141 162.753 16.1879 157.218 16.6562 151.756C16.8026 150.048 17.4836 148.731 18.9672 147.831C19.6696 147.435 20.6816 147.02 21.4977 147C37.0749 146.626 52.7807 147.181 68.3532 146.845C70.0246 146.918 70.8085 146.836 72.4843 146.641ZM63.3414 192.29C66.8525 190.166 67.6262 188.676 68.7555 184.639C70.3383 178.982 69.0746 165.69 60.4928 167.091C50.4392 173.307 55.2004 194.94 63.3414 192.29ZM37.0151 192.583C40.2613 190.773 41.5982 189.391 42.7029 185.597C44.3927 179.795 43.8926 166.72 35.4429 167.046C26.2864 170.91 26.9216 191.333 37.0151 192.583Z" fill="#FF4F40"/>
<path d="M72.4839 146.641C73.0675 146.682 74.6482 146.751 75.1266 146.904C73.7316 147.605 65.1738 147.417 62.8098 147.659C64.1243 148.439 71.1706 147.704 73.7586 148.13C72.0437 149.307 46.4997 148.133 42.3686 148.168C36.943 148.215 27.1632 148.445 21.7829 147.922L22.0104 147.776C20.6474 147.434 20.352 147.544 18.9668 147.831C19.6692 147.435 20.6811 147.02 21.4973 147C37.0745 146.626 52.7803 147.181 68.3528 146.845C70.0242 146.918 70.808 146.836 72.4839 146.641Z" fill="#FF4F40"/>
<path d="M270.717 263.449C272.638 263.269 277.083 263.112 278.396 264.531C280.52 266.818 279.572 271.652 279.767 274.621C279.841 275.726 279.634 277.95 278.896 278.848C278.23 279.583 275.756 279.974 274.746 279.974C265.938 280.249 257.118 280.083 248.307 280.071L199.174 280.015L84.7906 279.997C60.4355 279.9 36.0801 279.938 11.7255 280.119C5.07982 280.237 -0.676078 281.41 0.526155 272.328C0.872609 269.712 0.305013 267.298 1.56066 264.596C3.19949 263.035 21.8558 263.633 25.2563 263.636L62.7506 263.657L197.417 263.669L244.073 263.651C252.545 263.639 262.35 263.808 270.717 263.449Z" fill="#FF4F40"/>
</g>
<defs>
<clipPath id="clip0_20411_35437">
<rect width="280" height="281" fill="white"/>
</clipPath>
</defs>
</svg>
