<svg width="292" height="242" viewBox="0 0 292 242" fill="none" xmlns="http://www.w3.org/2000/svg">
<g clip-path="url(#clip0_2121_2105)">
<path d="M151.748 94.6135C177.28 93.9378 202.956 94.4355 228.497 94.4598C245.176 94.4751 262.656 93.4976 279.255 94.9513C282.014 95.1929 285.285 95.3241 287.532 97.0977C289.913 98.9682 291.333 102.029 291.648 104.997C292.322 111.192 263.321 213.949 259.627 224.553C258.109 228.915 255.835 234.666 252.618 238.038C247.064 243.853 159.845 241.405 146.752 241.389C126.396 241.373 18.9574 243.66 7.41815 238.789C4.87484 235.947 4.70417 231.202 5.70172 227.666C15.165 194.023 22.5882 160.702 33.3365 127.471C38.4681 111.607 110.525 122.806 126.028 118.559C144.837 113.404 135.599 98.085 151.748 94.6135ZM126.585 188.707C137.917 177.858 138.672 153.123 119.746 154.369C109.006 165.29 108.072 186.359 126.585 188.707ZM170.468 187.626C181.567 177.946 181.639 153.76 162.416 154.493C152.521 164.978 152.018 190.961 170.468 187.626Z" fill="#FF4F40"/>
<path d="M17.3313 0.237359C39.4661 0.475446 80.159 -1.20913 102.716 1.96416C115.415 3.75116 112.152 32.3287 133.649 32.2398C160.7 32.1275 186.223 32.3907 213.121 32.1598C255.701 32.9756 263.699 23.9481 263.016 70.7344L246.795 69.5134C245.599 59.6566 243.919 52.3621 232.541 51.6389C217.524 50.6857 202.399 51.0711 187.346 51.0891L100.64 51.1169C77.1213 51.0882 50.601 49.5312 27.6933 53.2166C17.2954 54.8895 20.5397 83.4095 20.0634 89.8253C18.9221 105.34 22.5797 134.039 19.3534 147.991C14.815 167.615 8.21866 201.258 0.202317 219.113L0.0674912 88.3411C0.0764781 65.5899 -0.211169 42.6366 0.337033 19.8881C0.651576 6.86516 4.76762 2.66135 17.3313 0.237359Z" fill="#FF4F40"/>
<path d="M52.718 75.4308C62.1183 74.9106 75.0235 75.3284 84.7114 75.3329L147.584 75.3572C183.523 75.3671 226.094 74.1057 261.529 75.43C264.27 79.2789 267.02 82.2536 264.836 86.6622C259.543 89.7223 243.358 88.1051 235.719 88.0656C209.414 88.1653 183.055 87.6218 156.787 88.071C149.004 88.5059 141.473 89.1329 137.123 96.5136C132.63 104.149 132.387 111.899 122.124 112.742C112.912 113.499 104.177 113.215 95.0374 113.205L46.7776 113.147C46.8765 104.684 46.1037 95.7535 46.6968 87.3989C47.1641 80.8709 47.9819 79.3435 52.718 75.4308Z" fill="#FE9B66"/>
<path d="M41.3859 56.9331C68.7242 56.6483 222.976 54.2082 238.119 59.4038C241.408 62.2124 242.01 66.2041 239.188 69.5355C235.36 71.301 178.508 70.5777 169.809 70.584C134.859 70.1321 99.7919 70.7224 64.8238 70.3307C58.9733 70.2651 53.4284 70.4735 47.5959 71.0315C45.6098 73.3108 43.2911 76.387 41.3589 78.8074C40.4243 89.9984 40.7839 102.644 40.8647 114.003C32.6327 118.151 31.2397 118.812 25.7846 126.318C25.7127 116.466 22.8189 65.2257 28.9749 59.3526C32.1114 56.3527 37.3508 56.9754 41.3859 56.9331Z" fill="#FE9B66"/>
</g>
<defs>
<clipPath id="clip0_2121_2105">
<rect width="291.659" height="241.914" fill="white"/>
</clipPath>
</defs>
</svg>
