<svg width="292" height="242" viewBox="0 0 292 242" fill="none" xmlns="http://www.w3.org/2000/svg">
<g clip-path="url(#clip0_2096_4867)">
<path d="M151.748 94.6135C177.28 93.9378 202.956 94.4355 228.497 94.4598C245.176 94.4751 262.656 93.4976 279.255 94.9513C282.014 95.1929 285.285 95.3241 287.532 97.0977C289.913 98.9682 291.333 102.029 291.648 104.997C292.322 111.192 263.321 213.949 259.627 224.553C258.109 228.915 255.835 234.666 252.618 238.038C247.064 243.853 159.845 241.405 146.752 241.389C126.396 241.373 18.9574 243.66 7.41815 238.789C4.87484 235.947 4.70417 231.202 5.70172 227.666C15.165 194.023 22.5882 160.702 33.3365 127.471C38.4681 111.607 110.525 122.806 126.028 118.559C144.837 113.404 135.599 98.085 151.748 94.6135ZM126.585 188.707C137.917 177.858 138.672 153.123 119.746 154.369C109.006 165.29 108.072 186.359 126.585 188.707ZM170.468 187.626C181.567 177.946 181.639 153.76 162.416 154.493C152.521 164.978 152.018 190.961 170.468 187.626Z" fill="#F26044"/>
<path d="M17.3304 0.237359C39.4652 0.475446 80.158 -1.20913 102.715 1.96416C115.414 3.75116 112.151 32.3287 133.648 32.2398C160.699 32.1275 186.222 32.3907 213.12 32.1598C255.7 32.9756 263.698 23.9481 263.015 70.7344L246.794 69.5134C245.598 59.6566 243.918 52.3621 232.54 51.6389C217.523 50.6857 202.398 51.0711 187.345 51.0891L100.639 51.1169C77.1203 51.0882 50.6 49.5312 27.6923 53.2166C17.2944 54.8895 20.5387 83.4095 20.0624 89.8253C18.9211 105.34 22.5787 134.039 19.3524 147.991C14.814 167.615 8.21768 201.258 0.20134 219.113L0.0665146 88.3411C0.0755016 65.5899 -0.212146 42.6366 0.336057 19.8881C0.650599 6.86516 4.76664 2.66135 17.3304 0.237359Z" fill="#F26044"/>
<path d="M52.719 75.4308C62.1193 74.9106 75.0245 75.3284 84.7124 75.3329L147.585 75.3572C183.524 75.3671 226.095 74.1057 261.53 75.43C264.271 79.2789 267.021 82.2536 264.837 86.6622C259.544 89.7223 243.359 88.1051 235.72 88.0656C209.415 88.1653 183.056 87.6218 156.788 88.071C149.005 88.5059 141.474 89.1329 137.124 96.5136C132.631 104.149 132.388 111.899 122.125 112.742C112.913 113.499 104.178 113.215 95.0384 113.205L46.7786 113.147C46.8775 104.684 46.1046 95.7535 46.6978 87.3989C47.1651 80.8709 47.9829 79.3435 52.719 75.4308Z" fill="#D1C9F3"/>
<path d="M41.3869 56.9331C68.7251 56.6483 222.977 54.2082 238.12 59.4038C241.409 62.2124 242.011 66.2041 239.189 69.5355C235.361 71.301 178.509 70.5777 169.81 70.584C134.86 70.1321 99.7929 70.7224 64.8248 70.3307C58.9743 70.2651 53.4294 70.4735 47.5969 71.0315C45.6108 73.3108 43.2921 76.387 41.3599 78.8074C40.4253 89.9984 40.7848 102.644 40.8657 114.003C32.6337 118.151 31.2407 118.812 25.7856 126.318C25.7137 116.466 22.8199 65.2257 28.9759 59.3526C32.1124 56.3527 37.3518 56.9754 41.3869 56.9331Z" fill="#D1C9F3"/>
</g>
<defs>
<clipPath id="clip0_2096_4867">
<rect width="291.659" height="241.914" fill="white"/>
</clipPath>
</defs>
</svg>
