<svg width="251" height="208" viewBox="0 0 251 208" fill="none" xmlns="http://www.w3.org/2000/svg">
<g clip-path="url(#clip0_20411_21159)">
<path d="M130.421 81.3153C152.364 80.7346 174.431 81.1623 196.382 81.1832C210.718 81.1963 225.741 80.3562 240.007 81.6056C242.378 81.8133 245.189 81.926 247.12 83.4503C249.167 85.058 250.387 87.6887 250.658 90.2392C251.237 95.5641 226.312 183.878 223.138 192.992C221.832 196.741 219.878 201.684 217.113 204.582C212.34 209.58 137.38 207.476 126.126 207.462C108.632 207.448 16.293 209.414 6.37555 205.227C4.1897 202.785 4.04301 198.706 4.90036 195.668C13.0336 166.753 19.4135 138.115 28.6512 109.555C33.0615 95.9208 94.9913 105.545 108.315 101.895C124.481 97.4651 116.541 84.2989 130.421 81.3153ZM108.794 162.184C118.534 152.86 119.182 131.601 102.916 132.672C93.686 142.059 92.8828 160.167 108.794 162.184ZM146.509 161.255C156.048 152.935 156.11 132.149 139.589 132.779C131.085 141.79 130.652 164.122 146.509 161.255Z" fill="#FF4F40"/>
<path d="M14.8945 0.203999C33.9184 0.408624 68.892 -1.03919 88.2788 1.6881C99.1926 3.22395 96.3889 27.7851 114.864 27.7086C138.113 27.6121 160.049 27.8384 183.166 27.6399C219.762 28.341 226.636 20.5823 226.049 60.7929L212.108 59.7436C211.08 51.2721 209.636 45.0029 199.858 44.3813C186.951 43.562 173.952 43.8933 161.014 43.9087L86.4946 43.9326C66.2812 43.9079 43.4882 42.5698 23.8001 45.7372C14.8636 47.175 17.652 71.6867 17.2426 77.2007C16.2617 90.5353 19.4052 115.201 16.6324 127.192C12.7318 144.057 7.06258 172.972 0.172906 188.317L0.057029 75.9251C0.0647529 56.3715 -0.182467 36.6442 0.288688 17.0929C0.559023 5.90029 4.09657 2.28731 14.8945 0.203999Z" fill="#FF4F40"/>
<path d="M45.3087 64.829C53.3879 64.3819 64.4793 64.7409 72.8056 64.7448L126.842 64.7657C157.729 64.7742 194.317 63.69 224.772 64.8282C227.128 68.1362 229.492 70.6928 227.615 74.4818C223.065 77.1118 209.155 75.7219 202.589 75.688C179.982 75.7737 157.328 75.3065 134.751 75.6926C128.062 76.0664 121.589 76.6053 117.851 82.9487C113.989 89.5113 113.781 96.172 104.96 96.8963C97.043 97.5465 89.5355 97.3025 81.6803 97.294L40.2033 97.2446C40.2882 89.9708 39.624 82.2954 40.1338 75.115C40.5354 69.5044 41.2382 68.1918 45.3087 64.829Z" fill="#FF4F40"/>
<path d="M35.5695 48.9312C59.0654 48.6864 191.638 46.5892 204.652 51.0546C207.479 53.4684 207.997 56.8992 205.571 59.7624C202.281 61.2797 153.42 60.6581 145.943 60.6635C115.905 60.2751 85.7667 60.7824 55.7132 60.4457C50.685 60.3894 45.9195 60.5685 40.9067 61.0481C39.1997 63.007 37.2069 65.6509 35.5463 67.7311C34.743 77.3493 35.052 88.2175 35.1215 97.9801C28.0465 101.545 26.8492 102.113 22.1609 108.564C22.0991 100.097 19.6119 56.0583 24.9028 51.0106C27.5984 48.4324 32.1015 48.9675 35.5695 48.9312Z" fill="#FF4F40"/>
</g>
<defs>
<clipPath id="clip0_20411_21159">
<rect width="250.667" height="207.914" fill="white"/>
</clipPath>
</defs>
</svg>
