<svg width="171" height="279" viewBox="0 0 171 279" fill="none" xmlns="http://www.w3.org/2000/svg">
<g clip-path="url(#clip0_20411_21164)">
<path d="M124.901 203.225L125.863 203.643C128.633 211.968 133.567 265.651 134.547 277.244C126.077 278 114.935 277.689 106.305 277.742C105.147 277.751 101.281 277.155 101.219 276.843C98.6895 265.294 102.172 251.475 93.0962 241.948C86.639 235.163 77.118 243.969 72.6558 248.893C71.5692 254.832 71.4801 257.486 71.3732 263.585L71.1952 277.6C63.304 277.537 43.4782 279.63 38.6152 276.006C35.5336 270.824 38.6508 252.784 39.3366 245.243C65.299 233.837 98.8232 215.984 124.901 203.225Z" fill="#FF4F40"/>
<path d="M121.402 172.897L122.266 172.986C125.107 176.183 125.054 191.97 125.303 197.125C98.6549 210.918 70.1808 223.908 43.0783 237.736C42.731 237.843 41.3326 237.754 40.8962 237.745C39.2128 233.649 42.3568 217.391 43.2118 212.191C52.4746 206.118 66.2441 200.357 76.1748 195.246C91.111 187.562 106.546 180.608 121.402 172.897Z" fill="#FF4F40"/>
<path d="M118.345 140.958C120.625 143.416 121.818 161.295 122.673 166.486C115.833 170.279 105.466 174.847 98.0469 178.569C81.2937 187.134 64.4426 195.504 47.4935 203.687L45.3292 203.918C43.637 200.855 45.926 182.059 46.3535 177.42C64.1932 166.691 98.7148 150.227 118.345 140.958Z" fill="#FF4F40"/>
<path d="M80.0561 0.444075C82.3184 0.0701067 84.6074 -0.0723226 86.8964 0.0345254C110.472 1.18314 111.104 21.137 118.621 29.5424C122.326 29.7472 123.351 29.0349 125.266 32.1958C125.257 35.695 125.818 35.0807 124.09 37.2355C118.799 38.5978 100.301 37.8141 93.79 37.7073C87.4842 37.7518 48.3668 39.0608 46.0244 36.3629C45.8106 33.7629 45.4188 32.5341 46.728 30.2992C58.4579 26.1143 53.2565 23.4698 59.2505 14.0316C64.2471 6.16936 71.2832 2.67007 80.0561 0.444075Z" fill="#FF4F40"/>
<path d="M115.184 110.979C117.821 114.567 117.625 129.481 117.812 134.779C96.9884 146.817 71.9434 157.101 50.3095 168.863L48.92 168.65C47.7444 162.987 50.6123 149.097 51.7879 142.873C62.6093 136.115 74.0987 131.333 85.499 125.67C95.4119 120.746 104.906 115.012 115.184 110.979Z" fill="#FF4F40"/>
<path d="M0.351668 35.3389C9.20473 37.3334 34.2231 47.3682 44.2519 50.9298C44.6883 55.6756 44.5013 63.0124 44.5102 67.9809C40.7695 69.1829 37.0376 70.4206 33.3236 71.6849C21.6471 75.6561 11.9212 79.1198 0.565415 83.8568C-0.485552 72.237 0.226977 47.8757 0.351668 35.3389Z" fill="#FF4F40"/>
<path d="M169.005 35.2051C171.437 38.277 170.11 76.7155 170.047 83.1709C161.72 80.8381 148.333 75.5046 139.676 72.4683C124.749 67.5622 125.087 66.6629 126.664 51.063C139.177 46.5131 156.999 38.4016 169.005 35.2051Z" fill="#FF4F40"/>
<path d="M58.5643 78.1407C80.5812 78.2654 102.607 78.2565 124.624 78.1318C125.292 84.5961 125.132 88.3359 124.864 94.8981C121.106 94.8358 117.294 94.9693 113.544 95.0405C90.8505 94.8624 68.1656 94.8002 45.4718 94.8536C45.3649 89.7249 45.5431 84.1154 45.6143 78.951L58.5643 78.1407Z" fill="#FF4F40"/>
<path d="M59.1976 101.255C69.4935 101.211 106.607 99.9286 113.946 102.484L114.364 103.837C112.69 107.159 95.7053 114.13 90.1833 117.318C79.2283 123.319 63.5262 130.238 51.8408 135.847C52.3752 129.232 53.7379 107.248 56.3653 101.941L59.1976 101.255Z" fill="#FF4F40"/>
<path d="M57.1855 44.1893C71.24 43.3078 98.8858 43.8688 113.724 44.038C114.009 53.7968 113.911 64.2412 113.991 74.0534L100.97 73.9465C100.827 68.15 100.64 64.0541 99.9546 58.32C95.5904 46.6112 90.6294 47.2879 79.1935 47.3503C68.4611 56.6193 69.5121 60.5994 70.0643 73.9644L57.2034 73.9733C56.0277 64.0097 56.473 54.1707 57.1855 44.1893Z" fill="#FF4F40"/>
<path d="M83.1919 51.6514C85.1068 51.9897 88.6338 52.4973 90.1212 53.6726C95.1712 57.6527 97.3977 68.7203 93.5234 73.6888L90.228 73.8134L75.7371 73.8045C75.2028 62.0869 73.1186 58.3116 83.1919 51.6514Z" fill="#FF4F40"/>
</g>
<defs>
<clipPath id="clip0_20411_21164">
<rect width="170.464" height="278.144" fill="white"/>
</clipPath>
</defs>
</svg>
