<svg width="203" height="331" viewBox="0 0 203 331" fill="none" xmlns="http://www.w3.org/2000/svg">
<g clip-path="url(#clip0_2121_2110)">
<path d="M148.227 241.176L149.368 241.673C152.655 251.552 158.511 315.259 159.673 329.017C149.622 329.916 136.399 329.546 126.157 329.609C124.783 329.62 120.195 328.912 120.121 328.542C117.12 314.837 121.252 298.437 110.482 287.131C102.819 279.079 91.5198 289.529 86.2243 295.373C84.9348 302.421 84.8291 305.57 84.7022 312.808L84.4909 329.44C75.1261 329.366 51.5979 331.849 45.8268 327.549C42.1696 321.399 45.869 299.991 46.6829 291.04C77.4937 277.504 117.278 256.318 148.227 241.176Z" fill="#FF4F40"/>
<path d="M144.074 205.184L145.099 205.289C148.471 209.083 148.408 227.818 148.704 233.936C117.079 250.304 83.2876 265.721 51.1238 282.131C50.7116 282.258 49.0521 282.152 48.5342 282.141C46.5365 277.281 50.2676 257.986 51.2823 251.815C62.2748 244.608 78.6156 237.772 90.4009 231.706C108.126 222.587 126.444 214.334 144.074 205.184Z" fill="#FF4F40"/>
<path d="M140.445 167.281C143.151 170.198 144.568 191.416 145.582 197.576C137.465 202.078 125.162 207.498 116.357 211.915C96.4754 222.081 76.4774 232.013 56.3632 241.724L53.7947 241.999C51.7864 238.364 54.5029 216.057 55.0102 210.552C76.1814 197.819 117.15 178.281 140.445 167.281Z" fill="#FF4F40"/>
<path d="M95.0062 0.527003C97.6909 0.0831987 100.407 -0.0858284 103.124 0.0409729C131.102 1.40409 131.852 25.0843 140.773 35.0593C145.17 35.3023 146.386 34.457 148.658 38.2082C148.648 42.3609 149.314 41.6318 147.263 44.189C140.985 45.8057 119.031 44.8757 111.305 44.7489C103.821 44.8018 57.3991 46.3552 54.6193 43.1535C54.3656 40.068 53.9006 38.6097 55.4543 35.9574C69.3747 30.9911 63.2019 27.8527 70.3153 16.6519C76.2449 7.32145 84.595 3.1687 95.0062 0.527003Z" fill="#FF4F40"/>
<path d="M136.695 131.703C139.823 135.962 139.591 153.661 139.813 159.948C115.101 174.234 85.3787 186.439 59.7048 200.398L58.0558 200.144C56.6606 193.424 60.0641 176.94 61.4593 169.553C74.3015 161.533 87.9365 155.859 101.466 149.138C113.23 143.295 124.497 136.49 136.695 131.703Z" fill="#FF4F40"/>
<path d="M0.41734 41.9375C10.9237 44.3045 40.6141 56.2132 52.5157 60.4399C53.0336 66.072 52.8117 74.7789 52.8222 80.6752C48.3829 82.1017 43.9542 83.5705 39.5466 85.071C25.6896 89.7838 14.1474 93.8943 0.671003 99.5159C-0.576227 85.7262 0.269363 56.8155 0.41734 41.9375Z" fill="#FE9B66"/>
<path d="M200.566 41.7812C203.452 45.4268 201.877 91.0436 201.803 98.7045C191.92 95.936 176.034 89.6065 165.76 86.0032C148.045 80.1809 148.447 79.1136 150.318 60.6006C165.168 55.201 186.318 45.5747 200.566 41.7812Z" fill="#FE9B66"/>
<path d="M69.5009 92.7332C95.6293 92.8812 121.768 92.8706 147.897 92.7227C148.689 100.394 148.499 104.832 148.182 112.62C143.722 112.546 139.198 112.704 134.748 112.789C107.816 112.578 80.8951 112.504 53.9634 112.567C53.8365 106.481 54.048 99.8236 54.1325 93.6948L69.5009 92.7332Z" fill="#FF4F40"/>
<path d="M70.2521 120.162C82.4707 120.11 126.515 118.588 135.224 121.621L135.721 123.227C133.734 127.168 113.577 135.442 107.024 139.225C94.0234 146.347 75.389 154.557 61.5215 161.214C62.1557 153.363 63.7728 127.274 66.8909 120.976L70.2521 120.162Z" fill="#FF4F40"/>
<path d="M67.8656 52.4407C84.5447 51.3946 117.353 52.0604 134.962 52.2611C135.301 63.8423 135.184 76.2371 135.279 87.8817L119.827 87.7549C119.657 80.8759 119.435 76.0152 118.622 69.2102C113.442 55.3148 107.555 56.118 93.9834 56.1919C81.2469 67.192 82.4941 71.9153 83.1494 87.7761L67.8868 87.7866C66.4916 75.9624 67.02 64.286 67.8656 52.4407Z" fill="#FF4F40"/>
<path d="M98.7266 61.2969C100.999 61.6984 105.185 62.3007 106.95 63.6956C112.943 68.4189 115.585 81.5534 110.987 87.4496L107.077 87.5976L89.8797 87.587C89.2455 73.6811 86.7722 69.2008 98.7266 61.2969Z" fill="#FF4F40"/>
</g>
<defs>
<clipPath id="clip0_2121_2110">
<rect width="202.298" height="330.086" fill="white"/>
</clipPath>
</defs>
</svg>
