<svg width="293" height="316" viewBox="0 0 293 316" fill="none" xmlns="http://www.w3.org/2000/svg">
<g clip-path="url(#clip0_2096_4904)">
<path d="M183.732 2.22555C184.966 2.1295 185.706 2.08392 186.971 2.13357L187.201 2.34169C186.159 4.26165 186.306 3.09545 185.714 4.10644C171.109 10.7229 157.685 22.0118 151.584 37.159C147.525 47.2363 147.881 60.3179 150.39 70.7781C150.781 72.4102 151.568 76.0547 152.546 77.3463C154.624 77.3891 159.16 74.9949 161.587 74.9463C161.709 74.9439 162.648 74.8077 162.883 74.7816C165.062 57.1303 173.52 42.2989 187.573 31.3063C201.943 20.0237 220.209 14.9123 238.348 17.0968C254.264 19.0819 266.444 24.7045 278.676 35.0513C280.616 36.6939 284.353 40.0422 285.913 41.9415C286.754 44.1779 288.249 43.7084 287.647 45.3666C275.024 34.8144 258.117 25.1413 241.392 23.8232C222.575 22.3401 205.78 25.9952 191.274 38.4959C182.627 45.8666 176.427 55.693 173.496 66.6709C172.845 69.0899 172.231 71.3598 172.055 73.8705C173.108 73.8841 174.16 73.9381 175.209 74.0322C191.638 75.4445 204.749 83.8594 215.179 96.2773C235.209 120.126 241.764 157.082 239.042 187.441C237.292 206.991 230.113 235.524 214.424 248.464C200.668 259.811 165.712 261.45 148.46 259.768C137.058 258.653 118.58 257.472 110.951 248.057C98.2255 232.355 97.8663 195.047 100.045 175.576C103.164 147.689 115.282 111.29 134.91 90.4517C137.826 87.3563 141.288 84.8129 144.604 82.1679C144.439 77.8822 142.887 72.9604 142.125 68.7059C140.224 58.0902 141.201 44.0596 145.7 34.2337C151.265 22.0777 162.337 11.6512 174.288 5.8929C176.827 4.66946 180.962 3.26639 183.732 2.22555Z" fill="#F26044"/>
<path d="M167.293 108.915C183.374 107.74 178.707 130.565 165.083 134.034C150.737 136.529 152.194 113.813 167.293 108.915Z" fill="#FEF8F2"/>
<path d="M133.6 105.952C148.393 104.629 144.768 124.374 131.403 129.536C117.897 132.069 120.058 111.507 133.6 105.952Z" fill="#FEF8F2"/>
<path d="M68.9635 52.1017C72.2814 51.6842 78.8542 52.2057 82.4138 52.3717C83.3285 52.9106 84.4374 53.8304 85.2994 54.4965C83.9555 56.6309 82.7475 58.8477 81.6823 61.1336C75.0416 75.1217 74.0841 91.8929 80.5733 106.024C85.2945 116.306 95.5873 124.57 105.597 129.307C103.787 136.393 100.758 143.943 98.8045 151.066C95.3472 163.675 93.6427 177.267 93.1106 190.304C76.3869 199.058 67.6426 201.904 48.2924 197.875C41.762 196.453 32.7729 190.939 27.6374 186.693C-4.18655 160.381 -9.74835 110.102 17.3495 78.327C30.3288 63.0018 48.9328 53.549 68.9635 52.1017Z" fill="#F26044"/>
<path d="M199.856 260.193C200.68 261.018 201.622 263.477 201.942 264.611C204.816 274.826 196.25 280.237 187.483 282.163C184.398 282.842 181.441 283.192 178.243 283.637C164.796 285.514 139.357 286.16 127.55 279.192C121.063 273.831 121.005 267.343 126.137 260.991C146.53 266.138 179.742 266.811 199.856 260.193Z" fill="#D1C9F3"/>
<path d="M96.9246 61.1738C107.142 63.138 115.321 79.3784 118.206 88.5444C119.122 91.4544 119.659 96.0639 120.557 99.3825C119.092 102.512 117.016 105.602 115.398 108.668C112.808 113.574 110.234 118.569 108.115 123.692C107.811 124.245 108.003 124.004 107.452 124.344C106.539 124.257 103.756 122.413 102.848 121.822C96.7482 117.853 89.782 113.154 86.7832 106.299C88.0305 103.367 90.4058 101.313 91.4686 98.4443C92.447 95.8028 91.29 91.3399 92.014 88.5976C92.9601 85.0127 95.5986 84.6252 95.7397 80.2418C95.8897 75.5811 94.4885 71.3008 94.5748 66.7457C94.6218 64.2722 95.153 62.8534 96.9246 61.1738Z" fill="#F26044"/>
<path d="M92.6706 197.465C93.1666 198.045 93.1007 200.58 93.085 201.426C92.8899 211.927 95.2334 221.608 97.7492 231.778C95.2494 230.622 92.2167 229.789 89.623 228.674C84.9059 226.644 80.5404 224.213 76.2433 221.426C68.9864 216.423 64.3325 212.201 60.3789 204.207C68.8467 205.092 77.3861 203.874 85.2114 200.618C87.7104 199.576 89.7164 198.29 92.3212 197.56L92.6706 197.465Z" fill="#D1C9F3"/>
<path d="M176.705 288.176C177.377 288.038 177.381 287.967 177.992 288.233C178.201 292.946 177.891 298.354 177.938 303.194C182.264 303.3 198.064 303.791 193.318 312.574C192.922 313.307 191.668 314.349 191.006 314.927C187.639 315.157 184.359 315.149 180.986 315.168C175.236 315.212 166.502 316.506 162.64 311.635C162.517 304.695 162.684 296.351 162.638 289.329C167.319 288.61 172.01 288.773 176.705 288.176Z" fill="#F26044"/>
<path d="M140.633 287.541C147.168 288.233 148.637 289.277 155.719 289.328C155.557 296.483 155.967 303.569 155.719 310.561L153.06 313.057C148.786 313.82 144.042 313.692 139.667 313.698C135.631 313.749 129.171 314.46 125.71 312.325C123.734 311.104 122.664 308.062 124.489 306.201C128.462 302.147 135.184 302.044 140.462 301.716C140.626 296.994 140.682 292.268 140.633 287.541Z" fill="#F26044"/>
<path d="M183.729 2.22567C186.843 1.39186 192.196 -0.601899 195.143 0.177101L195.083 0.531728C194.502 0.921635 186.601 3.85747 185.711 4.10656C186.303 3.09557 186.156 4.26176 187.198 2.3418L186.967 2.13369C185.703 2.08404 184.963 2.12962 183.729 2.22567Z" fill="#F26044"/>
<path d="M285.914 41.9414C288.144 43.9183 290.323 46.5495 292.312 48.8249C290.714 47.7849 288.937 46.7473 287.648 45.3665C288.25 43.7083 286.755 44.1777 285.914 41.9414Z" fill="#F26044"/>
</g>
<defs>
<clipPath id="clip0_2096_4904">
<rect width="292.313" height="315.355" fill="white"/>
</clipPath>
</defs>
</svg>
