<svg width="348" height="316" viewBox="0 0 348 316" fill="none" xmlns="http://www.w3.org/2000/svg">
<g clip-path="url(#clip0_20411_21196)">
<path d="M184.421 2.31247C185.656 2.21642 186.396 2.17083 187.66 2.22049L187.891 2.4286C186.849 4.34856 186.995 3.18237 186.404 4.19336C171.799 10.8098 158.375 22.0987 152.273 37.2459C148.214 47.3233 148.571 60.4048 151.079 70.865C151.471 72.4971 152.258 76.1416 153.235 77.4332C155.314 77.4761 159.85 75.0818 162.276 75.0332C162.399 75.0308 163.338 74.8946 163.573 74.8686C165.751 57.2172 174.21 42.3858 188.263 31.3932C202.632 20.1106 220.899 14.9992 239.037 17.1837C254.954 19.1688 267.134 24.7914 279.366 35.1382C281.306 36.7808 285.042 40.1291 286.602 42.0284C287.443 44.2648 288.938 43.7954 288.336 45.4535C275.714 34.9013 258.807 25.2283 242.082 23.9101C223.265 22.427 206.469 26.0821 191.964 38.5828C183.317 45.9536 177.116 55.7799 174.186 66.7578C173.535 69.1768 172.921 71.4467 172.744 73.9574C173.797 73.971 174.849 74.025 175.898 74.1191C192.327 75.5314 205.438 83.9463 215.868 96.3642C235.898 120.213 242.453 157.169 239.732 187.528C237.982 207.078 230.802 235.611 215.114 248.551C201.357 259.898 166.402 261.537 149.149 259.855C137.747 258.74 119.27 257.559 111.64 248.144C98.915 232.442 98.5557 195.134 100.734 175.663C103.854 147.776 115.971 111.377 135.6 90.5386C138.516 87.4432 141.977 84.8998 145.294 82.2548C145.128 77.9691 143.577 73.0473 142.815 68.7928C140.914 58.1772 141.89 44.1465 146.389 34.3207C151.955 22.1646 163.026 11.7381 174.977 5.97982C177.517 4.75637 181.652 3.3533 184.421 2.31247Z" fill="#FF4F40"/>
<path d="M167.984 109.001C184.065 107.826 179.399 130.651 165.774 134.12C151.429 136.615 152.886 113.899 167.984 109.001Z" fill="#FDF8F3"/>
<path d="M134.289 106.038C149.082 104.715 145.458 124.46 132.092 129.622C118.586 132.155 120.748 111.593 134.289 106.038Z" fill="#FDF8F3"/>
<path d="M69.6539 52.1877C72.9718 51.7701 79.5446 52.2916 83.1042 52.4576C84.0189 52.9965 85.1278 53.9164 85.9899 54.5825C84.6459 56.7168 83.438 58.9336 82.3727 61.2196C75.7321 75.2077 74.7745 91.9788 81.2637 106.11C85.985 116.392 96.2777 124.656 106.287 129.393C104.478 136.479 101.448 144.029 99.4949 151.152C96.0376 163.761 94.3331 177.353 93.801 190.39C77.0773 199.144 68.3331 201.99 48.9829 197.961C42.4524 196.539 33.4634 191.025 28.3278 186.779C-3.49612 160.467 -9.05792 110.187 18.0399 78.4129C31.0192 63.0877 49.6232 53.635 69.6539 52.1877Z" fill="#FF4F40"/>
<path d="M97.616 61.2607C107.833 63.2249 116.012 79.4654 118.898 88.6313C119.814 91.5414 120.35 96.1508 121.249 99.4695C119.784 102.599 117.708 105.688 116.089 108.755C113.499 113.661 110.926 118.656 108.807 123.779C108.502 124.332 108.694 124.091 108.143 124.431C107.23 124.344 104.447 122.499 103.539 121.909C97.4396 117.94 90.4734 113.241 87.4746 106.386C88.7219 103.453 91.0972 101.4 92.16 98.5312C93.1384 95.8897 91.9815 91.4268 92.7054 88.6845C93.6515 85.0996 96.29 84.7121 96.4311 80.3287C96.5811 75.668 95.18 71.3878 95.2662 66.8326C95.3132 64.3591 95.8444 62.9403 97.616 61.2607Z" fill="#FF4F40"/>
<path d="M93.3611 197.551C93.8571 198.131 93.7911 200.666 93.7754 201.512C93.5803 212.013 95.9238 221.694 98.4396 231.864C95.9398 230.708 92.9071 229.875 90.3134 228.76C85.5963 226.73 81.2308 224.299 76.9337 221.512C69.6769 216.509 65.0229 212.287 61.0693 204.293C69.5371 205.178 78.0766 203.96 85.9018 200.704C88.4008 199.662 90.4068 198.376 93.0116 197.646L93.3611 197.551Z" fill="#FF4F40"/>
<path d="M277.85 51.8773C274.556 51.3033 267.966 51.5133 264.402 51.5109C263.463 52.0059 262.312 52.8722 261.419 53.4969C262.661 55.6923 263.763 57.9638 264.719 60.2976C270.69 74.5841 270.854 91.3817 263.703 105.19C258.501 115.237 247.829 123.006 237.607 127.263C239.079 134.427 241.748 142.112 243.363 149.319C246.22 162.078 245.481 176.188 245.396 189.236C261.687 198.771 272.085 201.574 291.604 198.465C298.195 197.353 307.435 192.271 312.765 188.272C345.798 163.495 353.731 113.535 328.166 80.5141C315.926 64.5922 297.79 54.2702 277.85 51.8773Z" fill="#FF4F40"/>
<path d="M249.49 59.6171C239.191 61.0959 230.253 76.9313 226.938 85.9506C225.885 88.814 225.132 93.3929 224.077 96.6654C225.392 99.861 227.32 103.045 228.792 106.185C231.146 111.208 233.481 116.319 235.355 121.537C235.633 122.102 235.453 121.853 235.987 122.219C236.903 122.175 239.771 120.464 240.705 119.917C246.986 116.241 254.166 111.877 257.486 105.172C256.379 102.183 254.103 100.019 253.177 97.1038C252.325 94.4191 253.692 90.0159 253.098 87.2424C252.323 83.6168 249.706 83.105 249.772 78.7198C249.842 74.0572 251.444 69.848 251.574 65.2938C251.644 62.8209 251.18 61.3785 249.49 59.6171Z" fill="#FF4F40"/>
<path d="M244.86 193.967C244.286 194.471 243.986 196.988 243.88 197.828C242.561 208.247 238.849 217.49 234.896 227.192C237.536 226.408 240.657 226.02 243.384 225.29C248.344 223.96 253.014 222.183 257.667 220.044C265.569 216.137 270.782 212.629 275.845 205.288C267.338 204.944 259.063 202.51 251.788 198.161C249.465 196.77 247.665 195.209 245.192 194.112L244.86 193.967Z" fill="#FF4F40"/>
<path d="M177.394 263.87C178.066 263.732 178.07 263.661 178.682 263.927C178.891 268.64 178.58 274.048 178.627 278.889C182.953 278.994 198.753 279.485 194.007 288.269C193.611 289.001 192.357 290.043 191.695 290.621C188.328 290.852 185.048 290.844 181.675 290.863C175.925 290.906 167.191 292.2 163.329 287.33C163.206 280.389 163.375 270.949 163.329 263.927C168.01 263.208 172.699 264.467 177.394 263.87Z" fill="#FF4F40"/>
<path d="M141.323 263.236C147.859 263.928 149.327 264.185 156.409 264.236C156.247 271.391 156.657 279.264 156.409 286.256L153.75 288.753C149.476 289.515 144.733 289.388 140.357 289.393C136.321 289.444 129.861 290.155 126.4 288.02C124.424 286.799 123.355 283.757 125.179 281.896C129.153 277.842 135.874 277.739 141.152 277.411C141.316 272.69 141.373 267.963 141.323 263.236Z" fill="#FF4F40"/>
<path d="M184.419 2.31161C187.533 1.4778 192.886 -0.515962 195.833 0.263038L195.773 0.617665C195.193 1.00757 187.292 3.94341 186.402 4.1925C186.993 3.18151 186.847 4.3477 187.888 2.42774L187.658 2.21963C186.393 2.16997 185.654 2.21555 184.419 2.31161Z" fill="#FF4F40"/>
<path d="M286.605 42.0283C288.836 44.0053 291.015 46.6364 293.004 48.9118C291.405 47.8718 289.628 46.8342 288.339 45.4534C288.942 43.7952 287.447 44.2647 286.605 42.0283Z" fill="#FF4F40"/>
</g>
<defs>
<clipPath id="clip0_20411_21196">
<rect width="347.485" height="316" fill="white"/>
</clipPath>
</defs>
</svg>
