<svg width="1201" height="394" viewBox="0 0 1201 394" fill="none" xmlns="http://www.w3.org/2000/svg">
<g clip-path="url(#clip0_2096_4502)">
<path d="M260.688 101.118H311.41V274.418H368.31V329.042H260.688V101.118ZM450.624 333.919C406.08 333.919 373.241 302.055 373.241 250.358C373.241 198.66 406.08 166.146 450.624 166.146C495.169 166.146 528.333 198.66 528.333 250.358C528.333 301.73 495.169 333.919 450.624 333.919ZM450.624 284.823C469.483 284.823 479.562 269.541 479.562 250.358C479.562 231.174 469.483 215.567 450.624 215.567C431.766 215.567 422.012 231.174 422.012 250.358C422.012 269.541 431.766 284.823 450.624 284.823ZM545.157 97.8661H593.278V186.305C601.081 174.274 612.786 165.821 629.369 165.821C667.41 165.821 690.82 198.01 690.82 249.707C690.82 301.405 667.735 333.919 628.393 333.919C610.836 333.919 598.805 326.441 591.327 313.11V328.717H545.157V97.8661ZM617.664 214.267C600.756 214.267 593.278 228.573 593.278 250.032C593.278 271.492 600.756 285.798 617.664 285.798C634.246 285.798 642.049 270.191 642.049 250.032C642.049 229.223 634.246 214.267 617.664 214.267ZM769.482 205.163H769.157C762.004 205.163 753.875 208.739 753.875 216.218C753.875 240.929 839.062 216.868 839.062 277.344C839.062 315.061 811.425 333.919 771.758 333.919C735.992 333.919 704.128 318.312 704.128 282.547V276.369H752.249V279.946C752.249 289.049 763.304 295.552 773.058 295.552C781.187 295.552 790.291 291 790.291 282.547C790.291 258.486 705.104 285.148 705.104 219.794C705.104 181.428 738.593 166.146 771.433 166.146C803.947 166.146 830.609 184.029 830.609 213.291V221.745H785.739V218.169C785.739 210.04 778.586 205.163 769.482 205.163ZM863.194 118.35H911.315V171.348H939.277V212.966H911.315V269.541C911.315 279.946 918.143 285.798 927.897 285.798C931.799 285.798 937.326 285.148 940.578 284.498V327.741C934.4 330.343 919.769 334.244 909.039 334.244C877.825 334.244 863.194 313.76 863.194 282.547V212.966H847.587V171.348H863.194V118.35ZM1024.9 334.244V333.919C977.753 333.919 953.367 302.055 953.367 250.358C953.367 198.335 978.403 166.146 1023.92 166.146C1067.49 166.146 1092.2 198.335 1092.2 241.904V262.063H1002.79C1002.79 277.995 1011.24 290.35 1025.87 290.35C1035.63 290.35 1044.73 284.172 1045.06 272.792H1091.55C1089.6 312.135 1062.94 334.244 1024.9 334.244ZM1003.44 235.076H1045.71C1045.38 221.42 1040.51 208.414 1024.57 208.414C1010.92 208.414 1003.44 220.119 1003.44 235.076ZM1110.66 328.717V171.023H1156.83V199.961C1159.76 183.053 1172.44 168.422 1192.92 168.422H1197.8V226.622H1187.4C1170.81 226.622 1158.78 234.751 1158.78 249.382V328.717H1110.66Z" fill="#F26044"/>
<g clip-path="url(#clip1_2096_4502)">
<path d="M187.77 2.2749C189.032 2.17673 189.788 2.13015 191.08 2.1809L191.316 2.39358C190.251 4.35576 190.401 3.16392 189.796 4.19714C174.87 10.9591 161.151 22.4961 154.915 37.9764C150.767 48.2753 151.131 61.6445 153.695 72.3347C154.095 74.0026 154.899 77.7273 155.898 79.0473C158.023 79.0911 162.658 76.6442 165.138 76.5945C165.263 76.5921 166.223 76.4528 166.463 76.4262C168.69 58.3868 177.334 43.2293 191.696 31.995C206.381 20.4644 225.049 15.2406 243.587 17.4731C259.853 19.5019 272.301 25.2481 284.802 35.8223C286.785 37.5011 290.603 40.923 292.197 42.8641C293.057 45.1496 294.585 44.6698 293.969 46.3644C281.069 35.5802 263.791 25.6945 246.698 24.3474C227.467 22.8317 210.302 26.5672 195.478 39.3427C186.641 46.8755 180.304 56.9179 177.309 68.1372C176.644 70.6093 176.016 72.9292 175.836 75.495C176.913 75.5089 177.988 75.5641 179.06 75.6603C195.85 77.1037 209.249 85.7036 219.908 98.3945C240.378 122.767 247.078 160.536 244.297 191.563C242.508 211.542 235.171 240.703 219.137 253.927C205.078 265.524 169.354 267.199 151.722 265.48C140.07 264.34 121.186 263.134 113.389 253.511C100.384 237.464 100.017 199.335 102.243 179.436C105.431 150.936 117.815 113.737 137.875 92.4408C140.855 89.2774 144.393 86.678 147.782 83.9749C147.613 79.5949 146.027 74.565 145.249 70.2169C143.306 59.3678 144.304 45.0287 148.902 34.9868C154.59 22.5635 165.905 11.9077 178.118 6.02288C180.714 4.77253 184.939 3.33862 187.77 2.2749Z" fill="#F26044"/>
<path d="M170.972 111.31C187.407 110.11 182.637 133.436 168.713 136.982C154.052 139.531 155.542 116.316 170.972 111.31Z" fill="#FEF8F2"/>
<path d="M136.539 108.282C151.657 106.929 147.953 127.108 134.293 132.384C120.491 134.973 122.7 113.959 136.539 108.282Z" fill="#FEF8F2"/>
<path d="M70.4807 53.2458C73.8715 52.8191 80.5888 53.352 84.2267 53.5218C85.1615 54.0725 86.2948 55.0125 87.1758 55.6933C85.8024 57.8745 84.5678 60.1401 83.4791 62.4763C76.6925 76.772 75.7139 93.9119 82.3458 108.354C87.1708 118.861 97.6899 127.308 107.919 132.148C106.07 139.39 102.974 147.107 100.978 154.386C97.4445 167.273 95.7025 181.163 95.1587 194.487C78.0674 203.433 69.1308 206.342 49.3552 202.224C42.6811 200.771 33.4945 195.136 28.246 190.796C-4.27762 163.906 -9.9617 112.521 17.7319 80.0477C30.9966 64.3855 50.0096 54.725 70.4807 53.2458Z" fill="#F26044"/>
<path d="M204.25 265.914C205.093 266.757 206.056 269.269 206.383 270.429C209.319 280.869 200.565 286.398 191.606 288.367C188.453 289.06 185.431 289.418 182.162 289.873C168.42 291.792 142.421 292.452 130.356 285.331C123.725 279.851 123.666 273.221 128.911 266.729C149.753 271.99 183.695 272.677 204.25 265.914Z" fill="#F26044"/>
<path d="M99.0558 62.5195C109.498 64.5269 117.857 81.1244 120.805 90.4919C121.742 93.4659 122.29 98.1767 123.208 101.568C121.711 104.767 119.589 107.924 117.935 111.058C115.288 116.072 112.658 121.177 110.493 126.413C110.181 126.977 110.378 126.731 109.814 127.078C108.882 126.99 106.037 125.105 105.109 124.501C98.8755 120.445 91.7561 115.642 88.6914 108.637C89.9662 105.64 92.3936 103.541 93.4798 100.609C94.4798 97.9099 93.2973 93.3489 94.0372 90.5462C95.0041 86.8825 97.7006 86.4865 97.8448 82.0068C97.9981 77.2436 96.5662 72.8692 96.6543 68.2139C96.7023 65.686 97.2453 64.236 99.0558 62.5195Z" fill="#F26044"/>
<path d="M94.7136 201.807C95.2205 202.4 95.1532 204.99 95.1371 205.855C94.9377 216.587 97.3327 226.481 99.9039 236.874C97.3491 235.693 94.2497 234.841 91.599 233.702C86.7781 231.627 82.3167 229.143 77.9251 226.295C70.5087 221.182 65.7524 216.867 61.7119 208.698C70.3659 209.602 79.0931 208.356 87.0904 205.029C89.6443 203.964 91.6944 202.65 94.3565 201.904L94.7136 201.807Z" fill="#F26044"/>
<path d="M180.588 294.511C181.274 294.369 181.278 294.297 181.903 294.569C182.117 299.386 181.799 304.912 181.848 309.859C186.269 309.967 202.416 310.469 197.566 319.445C197.161 320.194 195.88 321.259 195.203 321.85C191.762 322.085 188.409 322.077 184.962 322.096C179.086 322.141 170.16 323.463 166.213 318.486C166.088 311.393 166.259 302.866 166.211 295.689C170.995 294.954 175.789 295.121 180.588 294.511Z" fill="#F26044"/>
<path d="M143.727 293.863C150.406 294.57 151.907 295.637 159.145 295.69C158.979 303.002 159.398 310.243 159.145 317.389L156.427 319.941C152.059 320.72 147.211 320.589 142.74 320.595C138.615 320.648 132.013 321.374 128.476 319.192C126.456 317.944 125.364 314.835 127.228 312.933C131.289 308.79 138.158 308.685 143.552 308.349C143.72 303.524 143.778 298.694 143.727 293.863Z" fill="#F26044"/>
<path d="M187.771 2.2746C190.954 1.42246 196.425 -0.615133 199.437 0.180994L199.376 0.543419C198.782 0.941898 190.707 3.94229 189.798 4.19685C190.402 3.16363 190.252 4.35546 191.317 2.39329L191.082 2.1806C189.789 2.12986 189.033 2.17644 187.771 2.2746Z" fill="#F26044"/>
<path d="M292.202 42.8633C294.482 44.8837 296.708 47.5727 298.741 49.8981C297.108 48.8352 295.291 47.7748 293.974 46.3636C294.59 44.6691 293.062 45.1488 292.202 42.8633Z" fill="#F26044"/>
</g>
</g>
<defs>
<clipPath id="clip0_2096_4502">
<rect width="1200.62" height="393.698" fill="white"/>
</clipPath>
<clipPath id="clip1_2096_4502">
<rect width="298.74" height="322.289" fill="white"/>
</clipPath>
</defs>
</svg>
