<svg width="1417" height="364" viewBox="0 0 1417 364" fill="none" xmlns="http://www.w3.org/2000/svg">
<g clip-path="url(#clip0_2121_2164)">
<path d="M292.91 64.7745C292.91 58.2025 297.407 53.7058 303.979 53.7058H367.278C373.85 53.7058 378.693 58.2025 378.693 64.7745V200.021H397.026C403.252 200.021 408.094 205.209 408.094 211.089V284.074C408.094 290.3 403.252 295.143 397.026 295.143H303.979C297.407 295.143 292.91 290.3 292.91 283.728V64.7745ZM505.389 300.331C449.353 300.331 413.034 270.93 413.034 195.524C413.034 120.464 449.353 91.0628 505.389 91.0628C561.079 91.0628 597.398 120.464 597.398 195.524C597.398 270.93 561.079 300.331 505.389 300.331ZM505.389 220.775C513.345 220.775 516.458 211.781 516.458 195.524C516.458 179.267 513.345 170.965 505.389 170.965C497.433 170.965 493.974 179.267 493.974 195.524C493.974 211.781 497.433 220.775 505.389 220.775ZM734.29 91.0628C772.685 91.0628 789.634 127.728 789.634 195.87C789.634 264.358 770.263 300.331 733.598 300.331C712.498 300.331 698.316 289.608 690.707 261.245C690.361 260.207 689.669 259.515 688.631 259.515C687.248 259.515 686.21 260.553 686.21 261.937V284.766C686.21 290.3 681.367 295.143 675.833 295.143H619.106C613.571 295.143 609.075 290.3 609.075 284.766V63.7368C609.075 58.2025 613.571 53.7058 619.106 53.7058H675.833C681.367 53.7058 686.21 58.2025 686.21 63.7368V136.03H686.556C687.594 136.03 688.285 135.338 688.631 134.3C696.241 103.169 711.806 91.0628 734.29 91.0628ZM697.279 220.775C705.234 220.775 708.693 211.781 708.693 195.524C708.693 179.267 705.234 170.965 697.279 170.965C689.323 170.965 686.21 179.267 686.21 195.524C686.21 211.781 689.323 220.775 697.279 220.775ZM939.267 172.003C930.62 168.89 921.28 166.469 912.633 166.469C902.948 166.469 898.105 169.236 898.105 174.424C898.105 187.914 958.983 190.681 958.983 239.453C958.983 284.074 920.243 300.331 873.892 300.331C855.56 300.331 827.542 296.526 807.48 288.917C802.291 287.187 800.216 283.036 800.216 277.848V227.001C800.216 219.737 804.713 216.97 811.631 219.737C822.007 223.888 834.806 227.693 843.107 227.693C848.296 227.693 853.484 225.963 853.484 221.466C853.484 205.901 798.832 209.706 798.832 157.821C798.832 109.741 837.227 91.0628 883.577 91.0628C906.407 91.0628 924.739 94.1759 942.034 98.3267C947.569 99.7103 950.336 103.515 950.336 109.05V164.393C950.336 171.657 945.839 174.424 939.267 172.003ZM997.837 53.7058H1054.56C1060.44 53.7058 1064.94 57.8565 1064.94 63.7368V91.7546C1064.94 94.8677 1066.67 96.5972 1069.78 96.5972H1082.93C1088.46 96.5972 1092.96 100.748 1092.96 106.628V167.506C1092.96 173.041 1088.46 177.191 1082.93 177.191H1069.78C1066.67 177.191 1064.94 178.921 1064.94 182.034V207.976C1064.94 211.089 1065.98 214.548 1069.78 214.548L1083.27 213.857C1089.5 213.857 1092.96 217.316 1092.96 223.542V278.194C1092.96 283.036 1091.58 286.841 1087.42 289.954C1076.36 297.218 1061.48 300.331 1044.53 300.331C1004.41 300.331 987.46 276.464 987.46 241.529V182.034C987.46 178.921 985.731 177.191 982.618 177.191H973.624C967.744 177.191 963.939 173.041 963.939 167.506V106.628C963.939 100.748 967.744 96.5972 973.624 96.5972H982.618C985.731 96.5972 987.46 94.8677 987.46 91.7546V63.7368C987.46 57.8565 991.957 53.7058 997.837 53.7058ZM1201.38 300.331C1145.69 300.331 1102.8 269.892 1102.8 195.524C1102.8 120.464 1140.5 91.0628 1196.88 91.0628C1244.96 91.0628 1271.25 121.156 1271.25 169.582V200.367C1271.25 206.593 1267.79 210.052 1261.56 210.052H1186.5C1183.39 210.052 1183.04 213.857 1184.08 215.24C1188.58 224.58 1206.22 228.384 1218.67 228.384C1229.74 228.384 1243.23 227.001 1254.99 225.271C1261.56 223.888 1265.37 227.347 1265.37 233.919V278.886C1265.37 284.074 1263.64 287.879 1259.49 289.954C1243.23 297.218 1221.09 300.331 1201.38 300.331ZM1180.62 175.116C1180.62 178.229 1182.7 180.305 1186.16 180.305H1198.96C1202.41 180.305 1204.49 178.229 1204.49 175.116V166.123C1204.49 158.167 1202.41 152.633 1195.84 152.633C1186.16 152.633 1180.62 161.28 1180.62 171.311V175.116ZM1412.99 105.591V191.719C1412.99 197.254 1408.84 201.404 1403.65 201.404H1386.36C1373.56 201.404 1361.8 212.819 1361.8 225.271L1361.45 212.819V284.766C1361.45 290.3 1356.61 295.143 1351.08 295.143H1294.35C1288.82 295.143 1284.32 290.3 1284.32 284.766V106.974C1284.32 101.44 1288.82 96.5972 1294.35 96.5972H1351.08C1356.61 96.5972 1361.45 101.44 1361.45 106.974V136.03C1361.45 137.067 1362.15 137.759 1363.18 137.759C1364.22 137.759 1364.91 137.067 1364.91 136.03C1365.95 118.735 1372.18 95.2136 1399.16 95.2136C1401.92 95.2136 1404 95.2136 1406.08 95.5595C1410.57 95.9054 1412.99 99.7103 1412.99 105.591Z" fill="#FF4F40"/>
<path d="M137.045 35.7785C132.902 34.9293 128.698 34.3952 124.473 34.1816C99.27 32.9131 71.9813 39.0634 52.4464 56.1824C50.8494 57.5819 48.9931 60.7181 47.5421 63.4906C46.2572 65.9457 47.9848 68.8052 50.7504 68.9785C55.3504 69.2668 61.3336 69.6306 63.0224 69.6821C77.9037 70.1364 91.8781 73.5975 103.598 83.0081C113.385 90.8673 121.192 101.591 124.473 113.412C128.359 127.388 131.837 141.124 131.838 155.905C130.894 165.778 131.253 176.938 132.292 186.835L146.263 228.924C155.24 247.517 185.02 294.163 207.509 294.163C207.509 294.163 223.512 294.163 234.512 294.163C294.471 294.163 299.492 159.426 253.859 96.9794C223.474 55.398 174.68 42.339 137.045 35.7785Z" fill="#FF4F40"/>
<path d="M23.6794 151.364C21.8354 147.411 17.045 146.282 15.4098 150.326C11.274 160.555 13.1364 179.427 14.576 187.093C20.763 220.015 43.3421 241.819 70.4716 259.406C101.866 279.755 121.302 294.326 177.531 293.935C177.531 293.935 191.554 297.337 172.932 279.966C155.327 263.545 135.356 233.692 128.196 195.536C127.473 191.687 124.208 188.736 120.292 188.839C113.641 189.013 109.078 189.717 100.74 190.686C91.0686 191.81 75.5232 190.264 66.247 187.485C51.0299 182.927 36.3331 173.694 28.0133 159.814C26.2986 156.953 24.9855 154.165 23.6794 151.364Z" fill="#FF4F40"/>
</g>
<defs>
<clipPath id="clip0_2121_2164">
<rect width="1416.27" height="363.799" fill="white"/>
</clipPath>
</defs>
</svg>
