<svg width="271" height="153" viewBox="0 0 271 153" fill="none" xmlns="http://www.w3.org/2000/svg">
<g clip-path="url(#clip0_2121_2139)">
<path d="M268.417 53.0209C269.003 53.2353 269.016 53.5628 269.518 54.2969C269.82 58.3705 269.679 61.8447 269.613 65.9023C269.308 88.1611 270.197 110.448 269.516 132.696C268.783 156.631 242.382 151.869 225.412 151.865L162.825 151.825L66.0995 151.883C49.7616 151.894 32.9601 152.106 16.6132 151.615C12.5641 151.494 9.25352 149 5.98317 146.756C-1.97964 137.17 0.294755 117.874 0.317658 105.688C0.284344 88.2715 0.400942 70.8557 0.667457 53.4414C89.4855 51.2308 179.479 54.8145 268.417 53.0209ZM33.8652 82.5534C33.8318 95.79 33.5577 109.902 34.0428 123.068C30.7537 124.02 28.4127 124.415 25.724 126.521L25.2999 127.537C28.8715 129.125 35.4913 127.602 39.2864 127.725C40.9778 127.78 45.0567 128.879 46.7973 129.348C47.4164 124.325 43.3597 124.727 38.7374 123.457C38.6145 111.631 38.0926 94.1941 38.8366 82.7053C42.2388 81.65 44.6743 81.2753 47.1027 78.7441L47.1867 77.65C43.341 76.0818 37.8379 77.1462 33.8124 77.208C32.1627 77.2329 27.4529 75.941 25.699 75.4567C25.2388 78.7414 24.8772 77.7283 26.4354 79.8807C29.0887 81.2975 31.005 81.7235 33.8652 82.5534Z" fill="#FE9B66"/>
<path d="M24.798 0.197808C42.4178 0.723748 62.8131 0.286654 80.5793 0.301225L190.558 0.319266L232.413 0.2485C241.094 0.234623 258.302 -1.64296 264.078 5.14223C272.177 14.6563 269.738 37.4959 269.787 49.6661L247.053 49.546L79.9456 49.5523C53.442 49.2636 26.9364 49.2053 0.431361 49.3788C0.379308 43.1348 0.34599 36.5675 0.311288 30.3589C0.198158 10.0839 1.97909 0.182543 24.798 0.197808ZM59.7065 37.924C70.2775 32.9803 70.1311 15.1795 58.6578 11.6915C55.1029 13.2173 53.5975 14.213 51.9915 17.9293C50.1023 22.2638 50.0516 27.1783 51.8513 31.5509C53.4989 35.5004 55.6283 36.9658 59.7065 37.924ZM29.1594 38.0274C38.7949 32.5217 39.1981 14.9387 27.731 11.4833C17.4376 17.5594 16.2799 34.0558 29.1594 38.0274Z" fill="#FF4F40"/>
</g>
<defs>
<clipPath id="clip0_2121_2139">
<rect width="270.092" height="152.254" fill="white"/>
</clipPath>
</defs>
</svg>
