<svg width="271" height="153" viewBox="0 0 271 153" fill="none" xmlns="http://www.w3.org/2000/svg">
<g clip-path="url(#clip0_2096_4901)">
<path d="M268.417 53.0229C269.003 53.2373 269.016 53.5648 269.518 54.2989C269.82 58.3725 269.679 61.8466 269.613 65.9043C269.308 88.1631 270.197 110.45 269.516 132.698C268.783 156.632 242.382 151.871 225.412 151.867L162.825 151.827L66.0995 151.885C49.7616 151.896 32.9601 152.108 16.6132 151.617C12.5641 151.496 9.25352 149.002 5.98317 146.758C-1.97964 137.172 0.294755 117.876 0.317658 105.69C0.284344 88.2734 0.400942 70.8577 0.667457 53.4434C89.4855 51.2328 179.479 54.8165 268.417 53.0229ZM33.8652 82.5553C33.8318 95.792 33.5577 109.904 34.0428 123.07C30.7537 124.022 28.4127 124.417 25.724 126.523L25.2999 127.539C28.8715 129.127 35.4913 127.604 39.2864 127.727C40.9778 127.782 45.0567 128.881 46.7973 129.349C47.4164 124.327 43.3597 124.729 38.7374 123.459C38.6145 111.633 38.0926 94.1961 38.8366 82.7073C42.2389 81.6519 44.6743 81.2773 47.1027 78.7461L47.1867 77.6519C43.341 76.0838 37.8379 77.1482 33.8124 77.2099C32.1627 77.2349 27.4529 75.9429 25.699 75.4586C25.2388 78.7433 24.8772 77.7303 26.4354 79.8826C29.0887 81.2995 31.005 81.7255 33.8652 82.5553Z" fill="#D1C9F3"/>
<path d="M24.798 0.197808C42.4178 0.723748 62.8131 0.286654 80.5793 0.301225L190.558 0.319266L232.413 0.2485C241.094 0.234623 258.302 -1.64296 264.078 5.14223C272.177 14.6563 269.738 37.4959 269.787 49.6661L247.053 49.546L79.9456 49.5523C53.442 49.2636 26.9364 49.2053 0.431361 49.3788C0.379308 43.1348 0.34599 36.5675 0.311288 30.3589C0.198158 10.0839 1.97909 0.182543 24.798 0.197808ZM59.7065 37.924C70.2775 32.9803 70.1311 15.1795 58.6578 11.6915C55.1029 13.2173 53.5975 14.213 51.9915 17.9293C50.1023 22.2637 50.0516 27.1783 51.8513 31.5509C53.4989 35.5003 55.6283 36.9658 59.7065 37.924ZM29.1594 38.0274C38.7949 32.5217 39.1981 14.9387 27.731 11.4833C17.4376 17.5594 16.2799 34.0558 29.1594 38.0274Z" fill="#F26044"/>
</g>
<defs>
<clipPath id="clip0_2096_4901">
<rect width="270.092" height="152.254" fill="white"/>
</clipPath>
</defs>
</svg>
