<svg width="199" height="260" viewBox="0 0 199 260" fill="none" xmlns="http://www.w3.org/2000/svg">
<g clip-path="url(#clip0_2121_2134)">
<path d="M0.456575 47.8789C2.98046 49.192 7.0769 52.6697 10.1847 54.5062C20.6823 60.6278 32.1232 64.9573 44.0398 67.3261C79.0485 74.4591 129.736 74.4415 164.827 64.9396C176.789 61.7014 188.245 55.2337 198.519 48.4023C198.57 59.6076 200.071 97.3576 196.772 105.378C176.014 127.46 130.599 131.248 100.589 131.461C75.4286 131.639 13.4203 127.779 1.42567 101.483C-0.910077 96.3639 0.326121 56.7686 0.456575 47.8789ZM174.957 100.614C179.831 99.4869 182.982 94.7581 182.145 89.8342C181.306 84.9014 176.769 81.4769 171.798 82.027C168.311 82.4085 165.325 84.6885 164.041 87.9534C162.757 91.2182 163.387 94.9268 165.676 97.5795C167.967 100.232 171.54 101.403 174.957 100.614Z" fill="#FF4F40"/>
<path d="M0.506458 112.398C5.34213 114.438 10.2781 119.131 15.1404 121.465C47.6829 137.124 89.2587 136.822 124.614 135.198C143.486 134.329 161.46 131.117 178.795 124.659C184.787 122.423 193.092 115.751 198.545 112.176C198.55 122.245 199.923 162.054 196.927 168.841C176.032 191.642 132.035 194.969 101.551 195.217C75.5664 195.439 13.4915 192.343 1.24393 164.964C-0.724417 160.572 0.420376 119.699 0.506458 112.398ZM174.99 165.088C178.437 164.307 181.168 161.69 182.087 158.274C183.005 154.867 181.959 151.23 179.369 148.826C176.779 146.421 173.071 145.65 169.737 146.821C164.979 148.498 162.35 153.59 163.744 158.434C165.138 163.278 170.07 166.197 174.99 165.088Z" fill="#FF4F40"/>
<path d="M0.995394 175.93C44.3638 211.116 153.289 208.161 198.475 176.542C198.585 187.543 200.525 226.358 196.205 233.934C193.786 236.862 190.93 239.391 187.739 241.44C151.122 265.199 25.6698 269.768 0.75578 230.013C-0.181359 220.946 -0.402328 183.994 0.995394 175.93ZM174.911 229.294C180.092 228.177 183.367 223.049 182.202 217.876C181.038 212.704 175.881 209.475 170.72 210.69C165.62 211.879 162.435 216.962 163.586 222.073C164.737 227.174 169.791 230.403 174.911 229.294Z" fill="#FF4F40"/>
<path d="M93.3214 0.0963202C118.21 -0.87072 176.563 5.36619 191.75 22.3293C223.865 58.1985 122.928 66.8132 107.641 67.2746C86.5165 67.5318 8.76587 65.4203 1.08949 35.1049C-2.06448 22.6487 21.9799 13.1292 32.3097 9.51831C50.9167 3.00631 72.9297 1.28516 93.3214 0.0963202ZM119.62 47.9515C131.125 39.9046 131.473 18.0974 116.38 16.3141C104.945 25.5321 104.367 46.0795 119.62 47.9515ZM83.414 47.7208C93.5654 38.2456 94.2088 17.3877 78.6866 16.2876C68.5342 25.1684 67.834 47.9958 83.414 47.7208Z" fill="#FE9B66"/>
</g>
<defs>
<clipPath id="clip0_2121_2134">
<rect width="199.004" height="259.614" fill="white"/>
</clipPath>
</defs>
</svg>
