<svg width="199" height="260" viewBox="0 0 199 260" fill="none" xmlns="http://www.w3.org/2000/svg">
<g clip-path="url(#clip0_2096_4896)">
<path d="M0.456575 47.8809C2.98046 49.1939 7.0769 52.6717 10.1847 54.5082C20.6823 60.6298 32.1232 64.9593 44.0398 67.3281C79.0485 74.4611 129.736 74.4434 164.827 64.9416C176.789 61.7033 188.245 55.2357 198.519 48.4043C198.57 59.6095 200.071 97.3596 196.772 105.38C176.014 127.462 130.599 131.25 100.589 131.463C75.4286 131.641 13.4203 127.781 1.42567 101.485C-0.910077 96.3659 0.326121 56.7705 0.456575 47.8809ZM174.957 100.616C179.831 99.4888 182.982 94.7601 182.144 89.8361C181.306 84.9034 176.769 81.4789 171.798 82.0289C168.311 82.4104 165.325 84.6904 164.041 87.9553C162.757 91.2202 163.387 94.9287 165.676 97.5814C167.967 100.234 171.54 101.405 174.957 100.616Z" fill="#F26044"/>
<path d="M0.505481 112.398C5.34116 114.438 10.2771 119.131 15.1394 121.465C47.6819 137.124 89.2577 136.822 124.613 135.198C143.485 134.329 161.459 131.117 178.794 124.659C184.786 122.423 193.091 115.751 198.544 112.176C198.549 122.245 199.922 162.054 196.926 168.841C176.031 191.642 132.034 194.969 101.55 195.217C75.5654 195.439 13.4905 192.343 1.24295 164.964C-0.725393 160.572 0.4194 119.699 0.505481 112.398ZM174.989 165.088C178.436 164.307 181.167 161.69 182.086 158.274C183.004 154.867 181.958 151.23 179.368 148.826C176.778 146.421 173.07 145.65 169.736 146.821C164.978 148.498 162.349 153.59 163.743 158.434C165.137 163.278 170.069 166.197 174.989 165.088Z" fill="#F26044"/>
<path d="M0.995394 175.93C44.3638 211.116 153.289 208.161 198.475 176.542C198.585 187.543 200.525 226.358 196.205 233.934C193.786 236.862 190.93 239.391 187.739 241.44C151.122 265.199 25.6698 269.768 0.75578 230.013C-0.181359 220.946 -0.402328 183.994 0.995394 175.93ZM174.911 229.294C180.092 228.177 183.367 223.049 182.202 217.876C181.038 212.704 175.881 209.475 170.72 210.69C165.62 211.879 162.435 216.962 163.586 222.073C164.737 227.174 169.791 230.403 174.911 229.294Z" fill="#F26044"/>
<path d="M93.3214 0.0963202C118.21 -0.87072 176.563 5.36619 191.75 22.3293C223.865 58.1985 122.928 66.8132 107.641 67.2746C86.5165 67.5318 8.76587 65.4203 1.08949 35.1049C-2.06448 22.6487 21.9799 13.1292 32.3097 9.51831C50.9167 3.00631 72.9297 1.28516 93.3214 0.0963202ZM119.62 47.9515C131.125 39.9046 131.473 18.0974 116.38 16.3141C104.945 25.5321 104.367 46.0795 119.62 47.9515ZM83.414 47.7208C93.5654 38.2456 94.2088 17.3877 78.6866 16.2876C68.5342 25.1684 67.834 47.9958 83.414 47.7208Z" fill="#D1C9F3"/>
</g>
<defs>
<clipPath id="clip0_2096_4896">
<rect width="199.004" height="259.614" fill="white"/>
</clipPath>
</defs>
</svg>
