<svg width="402" height="294" viewBox="0 0 402 294" fill="none" xmlns="http://www.w3.org/2000/svg">
<g clip-path="url(#clip0_2121_2122)">
<path d="M148.315 293.289C134.105 291.774 123.753 284.477 126.113 269.188C131.103 236.873 172.798 244.789 176.291 211.684C177.095 204.066 178.468 176.53 174.21 170.769C171.151 172.55 169.172 180.211 168.511 183.721C163.538 210.019 147.947 237.459 119.094 241.556C108.478 243.061 87.3977 237.801 83.3936 252.15C80.636 262.03 88.1372 265.71 95.8156 267.396C83.6124 272.666 72.5766 259 75.2489 247.883C82.3083 218.501 111.021 235.027 129.01 221.638C136.49 216.069 141.212 207.811 144.124 199.062C160.442 143.766 107.739 132.073 116.657 73.3307C120.255 50.8942 132.585 30.8049 150.955 17.4262C172.187 2.19115 194.939 -2.96197 220.673 1.60428C243.675 5.90381 264.072 19.0478 277.486 38.2197C295.44 64.1875 298.089 96.4392 283.526 124.573C277.746 137.781 265.342 152.941 263.745 167.547C258.912 211.748 288.258 221.211 322.184 227.217C322.488 231.304 322.49 235.795 322.581 239.924C279.749 238.292 251.297 228.818 240.524 183.721C239.584 179.784 236.551 170.481 232.821 168.592C229.802 174.097 235.764 194.368 236.375 202.412C238.143 226.033 226.411 269.914 255.979 280.433C270.482 285.586 287.102 273.989 275.716 256.642L275.005 255.586L276.733 250.881C297.984 263.726 284.97 290.793 266.687 292.745C225.68 297.109 215.903 254.113 218.21 222.427C219.044 210.969 212.241 180.765 205.491 173.287L203.391 172.967C195.755 180.2 198.558 220.4 185.433 236.35C168.985 256.343 142.803 250.038 137.534 274.384C136.317 280.007 141.22 285.96 146.147 288.563L150.767 290.313C150.298 292.564 150.758 291.465 148.315 293.289ZM185.565 62.1178C194.347 55.9406 197.079 44.8877 190.743 35.9579C189.007 33.5147 186.479 31.7543 183.588 30.9648C171.739 38.7317 170.198 58.3624 185.565 62.1178ZM224.092 62.0324C235.307 52.5798 233.945 32.0958 221.052 30.8688C208.907 39.3719 208.848 57.0714 224.092 62.0324Z" fill="#FF4F40"/>
<path d="M71.2178 91.4336C99.4799 104.289 68.6917 156.172 81.2706 176.976C89.8112 190.632 104.727 194.409 118.41 185.714C130.378 178.096 133.745 170.031 136.957 157.004C141.027 169.572 141.35 174.522 140.314 187.623C139.563 191.955 138.739 197.887 135.696 201.13C119.928 217.613 88.1624 214.84 72.6723 199.925C47.6779 175.845 62.9001 151.328 68.6586 123.568C69.7984 118.074 65.7463 105.922 66.0963 99.6272C66.3247 95.5303 68.3481 94.2928 71.2178 91.4336Z" fill="#FF4F40"/>
<path d="M74.0152 36.6406C76.8635 36.7153 76.9852 36.4272 79.1814 38.0916C78.2423 44.3648 71.3067 47.3841 71.0175 53.1345C70.6686 60.1013 78.2189 63.9633 84.0542 64.4328C89.2194 61.9683 92.3686 52.9319 97.9072 52.5158C101.542 60.5707 99.4515 70.194 92.423 75.6031C85.0541 81.2682 79.7716 81.4068 71.0293 81.8869C63.4107 89.3764 51.1253 105.422 42.844 114.683C45.9142 130.473 45.2376 142.102 28.0368 147.404C25.4095 147.681 24.8865 147.969 22.4181 147.009C21.6562 136.778 40.3959 129.448 15.4271 119.943C11.8542 123.218 7.29622 128.478 3.47999 132.212L1.59106 132.148C-1.62115 126.237 0.219754 115.184 5.41158 110.501C12.4294 104.174 18.3117 103.79 27.133 104.046C33.1305 97.2073 55.5658 73.832 56.2851 67.9108C57.8997 54.6175 49.0197 43.3513 74.0152 36.6406Z" fill="#FE9B66"/>
<path d="M319.045 95.7031C321.145 96.8127 329.492 102.659 330.172 104.388C334.475 115.334 342.077 130.729 345.007 141.707C357.201 187.38 312.164 213.124 274.167 189.749C265.284 177.832 269.845 166.853 273.489 154.019C279.07 162.575 283.182 173.276 294.177 175.901C307.692 178.941 320.232 179.891 325.937 164.613C334.923 140.544 313.532 120.476 318.766 96.9087L319.045 95.7031Z" fill="#FF4F40"/>
<path d="M146.15 288.563L147.729 288.659C166.109 289.661 172.325 269.604 152.596 268.516C169.082 259.597 174.014 293.47 148.319 293.289C150.762 291.464 150.302 292.563 150.77 290.312L146.15 288.563Z" fill="#FF4F40"/>
<path d="M275.01 255.584C265.643 251.199 260.9 253.856 257.909 263.308L257.157 262.892C253.513 250.388 268.038 249.396 276.739 250.879L275.01 255.584Z" fill="#FF4F40"/>
<path d="M40.9939 74.0117C42.1293 75.0786 41.6278 74.4811 41.8444 76.6469C38.7688 80.701 36.0283 83.891 32.6944 87.7211C30.6497 83.9337 30.8994 82.8987 31.9645 79.2607C35.1745 75.7186 36.2887 75.6974 40.9939 74.0117Z" fill="#FF4F40"/>
<path fill-rule="evenodd" clip-rule="evenodd" d="M340.332 203.352C355.124 203.149 381.434 201.367 395.161 205.261C402.701 207.395 401.193 240.457 401.232 248.736C401.279 258.744 402.393 272.453 389.903 275.163C374.17 275.334 346.954 277.318 332.954 272.442C326.149 270.062 327.435 213.39 330.493 207.522C333.435 204.578 336.211 204.376 340.332 203.352ZM359.624 222.866C358.706 221.826 357.118 221.727 356.077 222.645L341.834 235.212C341.294 235.689 340.984 236.376 340.984 237.097C340.984 237.817 341.294 238.504 341.834 238.98L356.077 251.548C357.118 252.466 358.706 252.367 359.624 251.326C360.543 250.285 360.443 248.697 359.403 247.778L347.295 237.096L359.403 226.414C360.443 225.496 360.542 223.907 359.624 222.866ZM375.321 222.645C374.28 221.726 372.692 221.826 371.774 222.866C370.855 223.907 370.955 225.496 371.995 226.414L384.102 237.096L371.995 247.778C370.955 248.697 370.855 250.285 371.774 251.326C372.692 252.367 374.28 252.466 375.321 251.548L389.564 238.98C390.104 238.504 390.414 237.817 390.414 237.097C390.414 236.376 390.104 235.689 389.564 235.212L375.321 222.645Z" fill="#FE9B66"/>
</g>
<defs>
<clipPath id="clip0_2121_2122">
<rect width="401.329" height="293.289" fill="white"/>
</clipPath>
</defs>
</svg>
