<svg width="301" height="170" viewBox="0 0 301 170" fill="none" xmlns="http://www.w3.org/2000/svg">
<g clip-path="url(#clip0_20411_21193)">
<path d="M298.449 58.9548C299.101 59.1932 299.115 59.5574 299.673 60.3736C300.009 64.903 299.852 68.7658 299.779 73.2775C299.439 98.0268 300.428 122.807 299.671 147.545C298.856 174.157 269.501 168.863 250.632 168.859L181.042 168.814L73.4944 168.879C55.3285 168.89 36.647 169.126 18.4711 168.581C13.969 168.446 10.2879 165.673 6.65165 163.178C-2.20212 152.519 0.326758 131.064 0.352224 117.515C0.315183 98.1495 0.444827 78.7852 0.741162 59.4224C99.497 56.9644 199.56 60.9491 298.449 58.9548ZM37.6533 91.7917C37.6163 106.509 37.3115 122.201 37.8509 136.84C34.1938 137.898 31.5908 138.337 28.6012 140.679L28.1297 141.809C32.1009 143.575 39.4614 141.881 43.6811 142.018C45.5618 142.079 50.0971 143.301 52.0325 143.822C52.7209 138.237 48.2103 138.684 43.0707 137.272C42.9341 124.123 42.3538 104.735 43.1811 91.9606C46.964 90.7872 49.6719 90.3706 52.3721 87.5562L52.4654 86.3396C48.1894 84.596 42.0706 85.7795 37.5947 85.8481C35.7603 85.8759 30.5236 84.4394 28.5735 83.9009C28.0618 87.5531 27.6598 86.4267 29.3922 88.8199C32.3425 90.3953 34.4731 90.869 37.6533 91.7917Z" fill="#FF4F40"/>
<path d="M27.5715 0.219941C47.1628 0.804728 69.8401 0.318728 89.5942 0.334929L211.878 0.354989L258.416 0.276305C268.069 0.260875 287.202 -1.82679 293.624 5.71759C302.629 16.2962 299.918 41.6913 299.972 55.2232L274.694 55.0897L88.8896 55.0967C59.4205 54.7757 29.9491 54.7109 0.478519 54.9038C0.420641 47.9612 0.383596 40.6591 0.345011 33.7558C0.219223 11.2121 2.19942 0.202968 27.5715 0.219941ZM66.3859 42.1673C78.1398 36.6704 77.9769 16.8779 65.2199 12.9996C61.2672 14.6961 59.5934 15.8033 57.8077 19.9353C55.7071 24.7548 55.6508 30.2192 57.6518 35.0812C59.4838 39.4725 61.8514 41.1019 66.3859 42.1673ZM32.4209 42.2823C43.1345 36.1605 43.5828 16.6102 30.8327 12.7682C19.3876 19.5241 18.1004 37.8663 32.4209 42.2823Z" fill="#FF4F40"/>
</g>
<defs>
<clipPath id="clip0_20411_21193">
<rect width="300.313" height="169.29" fill="white"/>
</clipPath>
</defs>
</svg>
